<svg xmlns="http://www.w3.org/2000/svg" >
  <defs>
    <symbol id="color" viewBox="0 2 64 64">
      <!-- <circle cx="32" cy="32" r="30" fill="white"/> -->
      <path d="M 15 52 A 20 20 0 1 1 49 52 z M 32 26 v 5" stroke="black" stroke-width="4" stroke-linecap="round" fill="white"/>
      <circle cx="32" cy="18" r="6" fill="red" stroke="black" stroke-width="4"/>
      <path d="M 24 38 h 16 a 7 7 0 1 1 0 14 h -16 a 7 7 0 1 1 0 -14" stroke="black" fill="black"/>
      <path d="M 22 44 a 3.5 3.5 0 1 1 7 0 v 3 a 8 8 0 0 0 -7 0 v -3 M 35 44 a 3.5 3.5 0 1 1 7 0 v 3 a 8 8 0 0 0 -7 0 v -3" fill="white"/>
    </symbol>

    <symbol id="silhouette" viewBox="0 0 85 107">
      <circle cx="10" cy="10" r="5" />
    </symbol>
  </defs>
</svg>